HIERARCHY
ROOT hip
{
	OFFSET 0.000000 0.000000 0.000000 
	CHANNELS 6 Xposition Yposition Zposition Xrotation Zrotation Yrotation
	JOINT abdomen
	{
		OFFSET 0.000000 3.402643 0.000000 
		CHANNELS 3 Xrotation Zrotation Yrotation
		JOINT chest
		{
			OFFSET 0.000000 8.438565 -0.680529 
			CHANNELS 3 Xrotation Zrotation Yrotation
			JOINT neck
			{
				OFFSET 0.000000 10.207942 -0.272212 
				CHANNELS 3 Xrotation Zrotation Yrotation
				JOINT head
				{
					OFFSET 0.000000 3.130431 0.000000 
					CHANNELS 3 Xrotation Zrotation Yrotation
					End Site
					{
						OFFSET 0.000000 3.130435 0.000000 
					}
				}
			}
			JOINT lCollar
			{
				OFFSET 3.470700 6.669187 -0.816635 
				CHANNELS 3 Yrotation Zrotation Xrotation
				JOINT lShldr
				{
					OFFSET 3.198488 0.000000 0.000000 
					CHANNELS 3 Zrotation Yrotation Xrotation
					JOINT lForeArm
					{
						OFFSET 10.139888 0.000000 0.000000 
						CHANNELS 3 Yrotation Zrotation Xrotation
						JOINT lHand
						{
							OFFSET 8.370511 0.000000 0.000000 
							CHANNELS 3 Zrotation Yrotation Xrotation
							End Site
							{
								OFFSET 4.083176 0.000000 0.000000 
							}
						}
					}
				}
			}
			JOINT rCollar
			{
				OFFSET -3.470700 6.669187 -0.816635 
				CHANNELS 3 Yrotation Zrotation Xrotation
				JOINT rShldr
				{
					OFFSET -3.198488 0.000000 0.000000 
					CHANNELS 3 Zrotation Yrotation Xrotation
					JOINT rForeArm
					{
						OFFSET -10.139888 0.000000 0.000000 
						CHANNELS 3 Yrotation Zrotation Xrotation
						JOINT rHand
						{
							OFFSET -8.370511 0.000000 0.000000 
							CHANNELS 3 Zrotation Yrotation Xrotation
							End Site
							{
								OFFSET -4.083176 0.000000 0.000000 
							}
						}
					}
				}
			}
		}
	}
	JOINT lThigh
	{
		OFFSET 5.308129 -1.633274 1.361059 
		CHANNELS 3 Xrotation Zrotation Yrotation
		JOINT lShin
		{
			OFFSET -2.041588 -20.007561 0.000000 
			CHANNELS 3 Xrotation Zrotation Yrotation
			JOINT lFoot
			{
				OFFSET 0.000000 -19.190928 -1.224953 
				CHANNELS 3 Xrotation Yrotation Zrotation
				End Site
				{
					OFFSET 0.000000 -2.449906 4.627600 
				}
			}
		}
	}
	JOINT rThigh
	{
		OFFSET -5.308129 -1.633274 1.361059 
		CHANNELS 3 Xrotation Zrotation Yrotation
		JOINT rShin
		{
			OFFSET 2.041588 -20.007561 0.000000 
			CHANNELS 3 Xrotation Zrotation Yrotation
			JOINT rFoot
			{
				OFFSET 0.000000 -19.190928 -1.224953 
				CHANNELS 3 Xrotation Yrotation Zrotation
				End Site
				{
					OFFSET 0.000000 -2.449906 4.627600 
				}
			}
		}
	}
}
MOTION
Frames: 6
Frame Time: 0.033333
39.932632 48.048660 213.640244 14.101588 21.676695 -21.775190 0.000000 0.000000 0.000000 15.176006 -4.986782 0.357476 42.700584 -4.633114 6.790014 -9.100417 2.885063 8.311223 0.848435 -24.218102 14.300447 -35.949657 -20.514202 28.801495 -35.526527 5.019248 5.212740 9.631660 4.702744 8.297018 8.562932 6.941802 15.027461 48.063313 34.452106 48.298988 15.501859 -9.384805 6.412378 -4.313328 7.426193 -15.973954 -38.396107 -1.532914 7.473134 31.928284 -1.098993 -3.788723 -8.812859 1.997833 -9.379611 -35.863232 -9.167925 -8.964041 95.700325 -6.249566 8.138410 -3.753432 -12.921669 4.428060 
38.579327 49.663223 213.196121 18.572981 18.155010 -14.960155 0.000000 0.000000 0.000000 14.872560 -2.001012 -1.878952 40.636154 3.044674 7.164215 -10.646832 7.047968 7.945715 -3.641482 -20.024385 13.787951 -34.061672 -26.057447 26.042852 -49.870922 4.849760 6.452584 15.855620 5.992653 14.319510 6.244617 8.420951 14.351935 44.247509 37.880562 42.906731 21.332155 -9.344669 7.331530 -10.820298 7.862166 -18.985228 -37.702366 0.859562 3.353728 21.944725 -1.721992 -2.711327 1.509821 -3.597561 -9.749589 -44.280956 -8.523846 -9.118646 85.154137 -4.784892 8.106363 -5.317903 -12.053254 4.512406 
36.948853 51.141590 212.517212 24.219976 14.615276 -8.492840 0.000000 0.000000 0.000000 14.394777 0.331067 -4.192318 39.808681 8.320596 5.425873 -10.878909 8.911184 6.626510 -8.804942 -15.876427 13.351493 -27.037853 -29.698107 17.203337 -58.659653 4.596273 7.166789 18.169052 5.570243 16.077604 4.212228 9.787584 13.685616 40.156338 38.786499 32.817802 31.067225 -9.068168 8.833242 -16.030029 8.353220 -19.157190 -41.272972 3.007377 2.243764 16.413843 -1.965823 -2.111756 6.481399 -1.145296 -7.792441 -49.266319 -8.740126 -5.124220 68.493813 -2.568074 7.515155 -3.083706 -13.256755 3.657303 
35.318420 52.619953 211.838257 29.325804 10.491906 -2.538043 0.000000 0.000000 0.000000 13.833398 2.645696 -6.526306 38.822323 13.566989 3.580440 -11.135600 10.757641 5.284974 -13.853691 -11.685890 13.275688 -19.222597 -32.298252 7.622192 -67.446777 4.239343 7.860119 20.462109 5.068394 17.811537 2.171428 11.171471 13.084820 35.893906 39.110165 22.560492 40.793064 -8.547604 10.257877 -21.249580 8.829681 -19.350393 -44.899952 5.097122 1.001663 10.876858 -2.157943 -1.487298 11.392149 1.467965 -6.056755 -54.226303 -8.613114 -1.101058 51.830898 -0.595337 6.327676 -0.852086 -14.474276 2.811413 
33.632473 52.884602 211.393707 31.370861 7.956678 1.807479 0.000000 0.000000 0.000000 14.227094 3.550081 -7.869998 41.986431 14.617882 1.544799 -8.354511 9.709230 4.031900 -16.158430 -9.767107 13.952558 -7.605597 -37.214001 -3.688578 -63.325069 4.415427 7.533531 17.721233 6.176617 19.360424 0.583296 12.233747 13.526831 30.548635 37.918873 11.632858 48.906376 -7.928054 11.360555 -20.295870 9.190694 -12.284954 -49.291386 5.077336 3.515816 17.460546 -1.982102 -2.250296 5.845090 8.272002 -3.864767 -54.629215 -10.077632 6.337279 40.708439 0.472352 5.246424 2.794528 -16.006201 2.545401 
31.946566 53.149254 210.949127 33.215446 5.276074 6.034111 0.000000 0.000000 0.000000 14.595983 4.461226 -9.200651 45.182549 15.802237 -0.345117 -5.545665 8.720076 2.730165 -18.506950 -7.863084 14.655411 5.670448 -40.023735 -16.667511 -59.208801 4.576069 7.208944 14.995841 7.354976 20.831926 -1.019451 13.282358 13.982382 25.707718 35.954628 1.095389 57.010784 -7.164666 12.382691 -19.295734 9.439721 -5.212736 -53.675022 5.252475 6.038909 24.062462 -1.699985 -3.026734 -0.109992 14.826930 -0.927900 -55.230991 -11.494112 13.831913 29.588007 1.323226 3.958731 6.466034 -17.556456 2.398692 
